<svg xmlns="http://www.w3.org/2000/svg" viewBox="0 0 66 95.42"><defs><style>.cls-1{fill:#245458;}.cls-2{fill:#205d64;}.cls-3{fill:#327177;}.cls-4{fill:#5c706f;}.cls-5{fill:#afc6c6;}</style></defs><title>buscemi</title><g id="Layer_2" data-name="Layer 2"><g id="Layer_1-2" data-name="Layer 1"><path class="cls-1" d="M27.78,63.2l-5.83,1.27a1.27,1.27,0,0,1-1.59-1.18V18.88a1.25,1.25,0,0,1,1.29-1.21h5.83a1.25,1.25,0,0,1,1.29,1.21V62A1.23,1.23,0,0,1,27.78,63.2Z"/><path class="cls-2" d="M33,68A33,33,0,1,1,66,35,33,33,0,0,1,33,68Zm0-57A24,24,0,1,0,57,35,24,24,0,0,0,33,11Z"/><path class="cls-1" d="M29.45,2.56c0-.14-.14-.27-.36-.33a13.53,13.53,0,0,0-2-.33l.8.17c.21.06.36.19.36.33V11s-.06.09-.14.08l-1.6-.07a.28.28,0,0,0,.24.12l2.51.12c.08,0,.14,0,.14-.08Z"/><path class="cls-3" d="M28.78,58.27l-8-2.68a.49.49,0,0,1-.42-.54V3.38a2,2,0,0,1,1-1.87A19.67,19.67,0,0,1,27.69,0c.6,0,1.09.6,1.09,1.37,0,8,0,50.49,0,56.9Z"/><path class="cls-4" d="M12,84.54H9V89h3v1H9v4.46h3v1H8V83.55H12Z"/><path class="cls-4" d="M18.37,83.55V94.43h3v1H17.38V83.55Z"/><path class="cls-4" d="M27.63,83.55V94.43h3v1H26.65V83.55Z"/><path class="cls-4" d="M39.85,93.94a1.41,1.41,0,0,1-.42,1,1.43,1.43,0,0,1-1,.44h-1a1.5,1.5,0,0,1-1.47-1.47V85A1.43,1.43,0,0,1,36.34,84a1.42,1.42,0,0,1,1-.44h1A1.48,1.48,0,0,1,39.85,85Zm-2.68-9.12a1,1,0,0,0-.29.71v7.9a1,1,0,0,0,1,1,1,1,0,0,0,.7-.29,1,1,0,0,0,.29-.71v-7.9a1,1,0,0,0-.29-.71,1,1,0,0,0-.7-.29A1,1,0,0,0,37.17,84.83Z"/><path class="cls-4" d="M49.39,88.76a.69.69,0,0,1-.2.51l-.05,0,0,0a.81.81,0,0,1-.42.14.7.7,0,0,1,.42.14l.08.08a.69.69,0,0,1,.2.51v5.2h-1V91a1,1,0,0,0-.29-.71,1,1,0,0,0-.69-.29h-1v5.44h-1V83.55h2.47A1.47,1.47,0,0,1,49.39,85Zm-3-4.22V89h1a1,1,0,0,0,.69-.29,1,1,0,0,0,.29-.7V85.54a1,1,0,0,0-.29-.71,1,1,0,0,0-.69-.29Z"/><path class="cls-4" d="M55.85,83.55l.95,3.81.93-3.81h1l-1.47,5.93v5.93h-1V89.49l-1.47-5.93Z"/><path class="cls-1" d="M59.51,54.24a17.24,17.24,0,0,0,2.22-8.81,17.12,17.12,0,0,1-1.95,5.45c-5,8.82-16.72,11.62-26.21,6.26a20,20,0,0,1-10.4-16.87C21.83,47.93,25.68,56.2,33.3,60.5,42.8,65.86,54.53,63.06,59.51,54.24Z"/><path class="cls-3" d="M42.81,61.51a22,22,0,1,1,22-22A22,22,0,0,1,42.81,61.51Zm0-35a13,13,0,1,0,13,13A13,13,0,0,0,42.81,26.51Z"/><path class="cls-5" d="M8.64,75.68a2,2,0,0,1,.74-.83,2,2,0,0,1,1.07-.27,2,2,0,0,1,1.67.91,4.76,4.76,0,0,1,0,4.76,2,2,0,0,1-1.67.91,2,2,0,0,1-1.07-.27,2,2,0,0,1-.74-.83V81H7.71v-8.7h.93Zm3.15,2.19a3.25,3.25,0,0,0-.42-1.78,1.36,1.36,0,0,0-2.31,0,4,4,0,0,0,0,3.56,1.36,1.36,0,0,0,2.31,0A3.25,3.25,0,0,0,11.79,77.87Z"/><path class="cls-5" d="M15.77,78.52V74.73h.92v3.75A2.32,2.32,0,0,0,17,79.82a1.07,1.07,0,0,0,.93.45,1.45,1.45,0,0,0,1.19-.53,2.23,2.23,0,0,0,.43-1.45V74.73h.93V81h-.93V80a2.4,2.4,0,0,1-.78.85,1.92,1.92,0,0,1-1,.28,1.72,1.72,0,0,1-1.47-.67A3.23,3.23,0,0,1,15.77,78.52Z"/><path class="cls-5" d="M27.55,74.92v1a3.33,3.33,0,0,0-1.69-.45,1.86,1.86,0,0,0-1,.23.79.79,0,0,0-.35.71.69.69,0,0,0,.25.56,2.77,2.77,0,0,0,1,.39l.31.08a2.86,2.86,0,0,1,1.4.66,1.65,1.65,0,0,1,.41,1.19,1.69,1.69,0,0,1-.62,1.38,2.62,2.62,0,0,1-1.71.51,4.84,4.84,0,0,1-.95-.1,7.16,7.16,0,0,1-1-.29V79.7a4.74,4.74,0,0,0,1,.44,3.41,3.41,0,0,0,1,.15,1.73,1.73,0,0,0,1-.25.9.9,0,0,0,.1-1.34,2.92,2.92,0,0,0-1.12-.43l-.32-.08A2.4,2.4,0,0,1,24,77.57a1.63,1.63,0,0,1-.38-1.14,1.7,1.7,0,0,1,.56-1.37,2.4,2.4,0,0,1,1.6-.48,5.24,5.24,0,0,1,1,.08A3.75,3.75,0,0,1,27.55,74.92Z"/><path class="cls-5" d="M35,75v1a3.44,3.44,0,0,0-.79-.36,2.72,2.72,0,0,0-.8-.12,1.68,1.68,0,0,0-1.4.63,3.44,3.44,0,0,0,0,3.56,1.68,1.68,0,0,0,1.4.63,2.69,2.69,0,0,0,.8-.12A3.4,3.4,0,0,0,35,79.8v1a3.56,3.56,0,0,1-.8.3,3.73,3.73,0,0,1-.88.1,2.51,2.51,0,0,1-2-.89,4.21,4.21,0,0,1,0-4.81,2.6,2.6,0,0,1,2.07-.88,3.57,3.57,0,0,1,.84.1A3.5,3.5,0,0,1,35,75Z"/><path class="cls-5" d="M43,77.61v.5H38.7a2.52,2.52,0,0,0,.58,1.62,1.86,1.86,0,0,0,1.43.56,3.71,3.71,0,0,0,1-.15,4.34,4.34,0,0,0,1-.44v1a5.17,5.17,0,0,1-1,.36,4.61,4.61,0,0,1-1.06.12,2.73,2.73,0,0,1-2.14-.87,3.39,3.39,0,0,1-.79-2.36,3.71,3.71,0,0,1,.75-2.44,2.48,2.48,0,0,1,2-.9,2.2,2.2,0,0,1,1.8.81A3.41,3.41,0,0,1,43,77.61ZM42,77.3A2.1,2.1,0,0,0,41.6,76a1.35,1.35,0,0,0-1.1-.5,1.64,1.64,0,0,0-1.24.49,2.14,2.14,0,0,0-.53,1.37Z"/><path class="cls-5" d="M50.43,75.93a2.66,2.66,0,0,1,.83-1,2,2,0,0,1,1.14-.33,1.56,1.56,0,0,1,1.36.68,3.38,3.38,0,0,1,.48,1.95V81h-.93V77.25A2.48,2.48,0,0,0,53,75.91a1,1,0,0,0-.88-.44A1.37,1.37,0,0,0,51,76a2.27,2.27,0,0,0-.42,1.45V81h-.93V77.25a2.46,2.46,0,0,0-.29-1.34,1,1,0,0,0-.89-.43,1.35,1.35,0,0,0-1.13.53,2.29,2.29,0,0,0-.42,1.45V81H46V74.73h.93v1a2.26,2.26,0,0,1,.76-.85,2,2,0,0,1,1.05-.27,1.62,1.62,0,0,1,1,.35A2,2,0,0,1,50.43,75.93Z"/><path class="cls-5" d="M57.66,72.29h.92v1.3h-.92Zm0,2.44h.92V81h-.92Z"/></g></g></svg>