<?xml version="1.0" encoding="iso-8859-1"?>
<!-- Generator: Adobe Illustrator 19.0.0, SVG Export Plug-In . SVG Version: 6.00 Build 0)  -->
<svg xmlns="http://www.w3.org/2000/svg" xmlns:xlink="http://www.w3.org/1999/xlink" version="1.1" id="Layer_1" x="0px" y="0px" viewBox="0 0 435.729 435.729" style="enable-background:new 0 0 435.729 435.729;" xml:space="preserve" width="512px" height="512px">
<g>
	<path d="M175.622,47.125c0-26.027-21.473-47.125-47.5-47.125s-47.5,21.099-47.5,47.125v24.333h95V47.125z" fill="#FFFFFF"/>
	<circle cx="338.583" cy="35.494" r="35.494" fill="#FFFFFF"/>
	<polygon points="353.743,101.729 353.743,141.729 323.743,141.729 323.743,101.729 265.743,101.729 265.743,269.729    284.743,269.729 284.743,435.729 392.743,435.729 392.743,269.729 411.743,269.729 411.743,101.729  " fill="#FFFFFF"/>
	<polygon points="172.26,191.729 184.435,101.729 72.264,101.729 84.44,191.729  " fill="#FFFFFF"/>
	<polygon points="82.345,221.729 23.986,435.729 232.714,435.729 174.354,221.729  " fill="#FFFFFF"/>
</g>
<g>
</g>
<g>
</g>
<g>
</g>
<g>
</g>
<g>
</g>
<g>
</g>
<g>
</g>
<g>
</g>
<g>
</g>
<g>
</g>
<g>
</g>
<g>
</g>
<g>
</g>
<g>
</g>
<g>
</g>
</svg>
