<svg xmlns="http://www.w3.org/2000/svg" viewBox="0 0 519.8 134.6"><defs><style>.cls-1{fill:#ec641b;}.cls-2{fill:#e6e6e6;}</style></defs><title>monster-logo</title><g id="Layer_2" data-name="Layer 2"><g id="Layer_1-2" data-name="Layer 1"><path class="cls-1" d="M0,0H60.27A33.27,33.27,0,0,1,93.54,33.27V134.6a0,0,0,0,1,0,0H0a0,0,0,0,1,0,0V0A0,0,0,0,1,0,0Z"/><path class="cls-1" d="M101.25,0h93.54a0,0,0,0,1,0,0V101.33a33.27,33.27,0,0,1-33.27,33.27H101.25a0,0,0,0,1,0,0V0a0,0,0,0,1,0,0Z" transform="translate(296.03 134.6) rotate(-180)"/><path class="cls-2" d="M240.28,55.22,225.41,19.65h-.18V55.22h-4V12.46h5.25L241.29,48h.18V12.46h3.87V55.22Z"/><path class="cls-2" d="M264.61,55.22V12.46h17.21V16.2H268.71v15H281v3.62H268.71V51.42h13.71v3.81Z"/><path class="cls-2" d="M325.79,33.78a40.32,40.32,0,0,1-1,9.15A24,24,0,0,1,322,50a13.8,13.8,0,0,1-4.41,4.59,10.91,10.91,0,0,1-5.92,1.63,11.06,11.06,0,0,1-5.95-1.63A13.94,13.94,0,0,1,301.3,50a23.38,23.38,0,0,1-2.81-7.1,40.24,40.24,0,0,1-1-9.15,41.17,41.17,0,0,1,.94-9.09,23.07,23.07,0,0,1,2.75-7.07,13.79,13.79,0,0,1,4.44-4.56,11.28,11.28,0,0,1,6.07-1.63,10.91,10.91,0,0,1,5.92,1.63A13.9,13.9,0,0,1,322,17.62a23.56,23.56,0,0,1,2.78,7.07A40,40,0,0,1,325.79,33.78Zm-4.41,0a41.32,41.32,0,0,0-.6-7.25,21.6,21.6,0,0,0-1.84-5.86,11.52,11.52,0,0,0-3.05-3.93,6.48,6.48,0,0,0-4.17-1.45,6.77,6.77,0,0,0-4.32,1.45,11,11,0,0,0-3.05,3.93,22.23,22.23,0,0,0-1.81,5.86,41.19,41.19,0,0,0-.6,7.25,41.18,41.18,0,0,0,.6,7.25,23.18,23.18,0,0,0,1.81,5.92,10.93,10.93,0,0,0,3.05,4,6.77,6.77,0,0,0,4.32,1.45,6.57,6.57,0,0,0,4.23-1.45,11.12,11.12,0,0,0,3-4A23.28,23.28,0,0,0,320.78,41,41.31,41.31,0,0,0,321.38,33.78Z"/><path class="cls-2" d="M250.41,127.7V90.56h-.18L239.75,127.7h-3.92L225.41,90.56h-.18V127.7h-4V84.94h6.28l10.21,36.12H238l10.09-36.12h6.52V127.7Z"/><path class="cls-2" d="M300.3,106.26a40.32,40.32,0,0,1-1,9.15,24,24,0,0,1-2.78,7.1,13.8,13.8,0,0,1-4.41,4.59,10.91,10.91,0,0,1-5.92,1.63,11.06,11.06,0,0,1-5.95-1.63,14,14,0,0,1-4.47-4.59,23.39,23.39,0,0,1-2.81-7.1,40.24,40.24,0,0,1-1-9.15,41.17,41.17,0,0,1,.94-9.09,23,23,0,0,1,2.75-7.07,13.77,13.77,0,0,1,4.44-4.56,11.28,11.28,0,0,1,6.07-1.63,10.91,10.91,0,0,1,5.92,1.63,13.9,13.9,0,0,1,4.41,4.56,23.56,23.56,0,0,1,2.78,7.07A40,40,0,0,1,300.3,106.26Zm-4.41,0a41.32,41.32,0,0,0-.6-7.25,21.6,21.6,0,0,0-1.84-5.86,11.52,11.52,0,0,0-3.05-3.93,6.48,6.48,0,0,0-4.17-1.45,6.77,6.77,0,0,0-4.32,1.45,11,11,0,0,0-3.05,3.93A22.23,22.23,0,0,0,277,99a43.77,43.77,0,0,0,0,14.5,23.18,23.18,0,0,0,1.81,5.92,10.93,10.93,0,0,0,3.05,4,6.77,6.77,0,0,0,4.32,1.45,6.57,6.57,0,0,0,4.23-1.45,11.12,11.12,0,0,0,3-4,23.28,23.28,0,0,0,1.81-5.92A41.31,41.31,0,0,0,295.89,106.26Z"/><path class="cls-2" d="M336.8,127.7,321.93,92.13h-.18V127.7h-4V84.94H323l14.8,35.58H338V84.94h3.87V127.7Z"/><path class="cls-2" d="M379.67,116.77a14,14,0,0,1-.84,5,11,11,0,0,1-2.33,3.74,10,10,0,0,1-3.47,2.36,11.06,11.06,0,0,1-4.23.82,13.13,13.13,0,0,1-6-1.39,12.28,12.28,0,0,1-4.44-3.68l2.6-3a9.52,9.52,0,0,0,3.5,3.08,9.27,9.27,0,0,0,4.29,1.09,6.46,6.46,0,0,0,4.86-2.05,8.15,8.15,0,0,0,2-5.86,8,8,0,0,0-.6-3.2,8.56,8.56,0,0,0-1.63-2.48,12.91,12.91,0,0,0-2.33-1.93,28.21,28.21,0,0,0-2.75-1.57,26.62,26.62,0,0,1-3.32-1.9,13.32,13.32,0,0,1-2.75-2.45,11.2,11.2,0,0,1-1.9-3.29,12.45,12.45,0,0,1-.72-4.44,13.51,13.51,0,0,1,.91-5.16,10.63,10.63,0,0,1,2.45-3.68,10.08,10.08,0,0,1,3.47-2.2,11.43,11.43,0,0,1,4-.72,13.14,13.14,0,0,1,5.22,1,9.43,9.43,0,0,1,3.9,3.11L377,91a7.12,7.12,0,0,0-2.84-2.51,8.37,8.37,0,0,0-3.56-.76,7.24,7.24,0,0,0-2.51.45,6,6,0,0,0-2.2,1.42,7.28,7.28,0,0,0-1.57,2.48,9.59,9.59,0,0,0-.6,3.56,8.27,8.27,0,0,0,.54,3.14,7.86,7.86,0,0,0,1.48,2.36,10.51,10.51,0,0,0,2.17,1.81,28.52,28.52,0,0,0,2.57,1.45,33.78,33.78,0,0,1,3.35,1.93,15.72,15.72,0,0,1,3,2.54,11.18,11.18,0,0,1,2.11,3.38A12,12,0,0,1,379.67,116.77Z"/><path class="cls-2" d="M403.95,88.56V127.7h-4.17V88.56h-8.21V84.94h20.66v3.62Z"/><path class="cls-2" d="M443.81,127.7,441.22,117H428l-2.72,10.69H421l10.87-42.76h5.74l10.57,42.76Zm-9-39h-.24l-5.92,24.88h12Z"/><path class="cls-2" d="M480.42,127.7l-7.73-19.81h-5.5V127.7H463V84.94h10.27a14.47,14.47,0,0,1,4.08.57,9.31,9.31,0,0,1,3.5,1.9,9.49,9.49,0,0,1,2.48,3.5,13.42,13.42,0,0,1,.94,5.32,14.07,14.07,0,0,1-.7,4.68,10.49,10.49,0,0,1-1.81,3.29,8.43,8.43,0,0,1-2.48,2.05,8,8,0,0,1-2.69.91l8.34,20.54Zm-.24-31.26a10.06,10.06,0,0,0-.63-3.82,6.32,6.32,0,0,0-1.69-2.44,6.09,6.09,0,0,0-2.42-1.26,10.92,10.92,0,0,0-2.81-.36h-5.44v16h5.62a7,7,0,0,0,5.41-2.14A8.53,8.53,0,0,0,480.17,96.44Z"/><path class="cls-2" d="M519.8,116.77a14,14,0,0,1-.84,5,11,11,0,0,1-2.33,3.74,10,10,0,0,1-3.47,2.36,11.06,11.06,0,0,1-4.23.82,13.13,13.13,0,0,1-6-1.39,12.28,12.28,0,0,1-4.44-3.68l2.6-3a9.52,9.52,0,0,0,3.5,3.08,9.27,9.27,0,0,0,4.29,1.09,6.46,6.46,0,0,0,4.86-2.05,8.15,8.15,0,0,0,2-5.86,8,8,0,0,0-.6-3.2,8.56,8.56,0,0,0-1.63-2.48,12.91,12.91,0,0,0-2.33-1.93,28.21,28.21,0,0,0-2.75-1.57,26.62,26.62,0,0,1-3.32-1.9,13.32,13.32,0,0,1-2.75-2.45,11.2,11.2,0,0,1-1.9-3.29,12.45,12.45,0,0,1-.72-4.44,13.51,13.51,0,0,1,.91-5.16A10.63,10.63,0,0,1,503,86.84a10.08,10.08,0,0,1,3.47-2.2,11.43,11.43,0,0,1,4-.72,13.14,13.14,0,0,1,5.22,1,9.43,9.43,0,0,1,3.9,3.11l-2.6,3a7.12,7.12,0,0,0-2.84-2.51,8.37,8.37,0,0,0-3.56-.76,7.24,7.24,0,0,0-2.51.45,6,6,0,0,0-2.2,1.42,7.28,7.28,0,0,0-1.57,2.48,9.59,9.59,0,0,0-.6,3.56,8.27,8.27,0,0,0,.54,3.14,7.86,7.86,0,0,0,1.48,2.36,10.51,10.51,0,0,0,2.17,1.81,28.52,28.52,0,0,0,2.57,1.45,33.78,33.78,0,0,1,3.35,1.93,15.72,15.72,0,0,1,3,2.54,11.18,11.18,0,0,1,2.11,3.38A12,12,0,0,1,519.8,116.77Z"/></g></g></svg>