<svg id="Layer_1" data-name="Layer 1" xmlns="http://www.w3.org/2000/svg" viewBox="0 0 237.96 98.27"><defs><style>.cls-1{fill:#dadada;}.cls-2{fill:#ededed;}.cls-3{fill:#2cabe2;}.cls-4{fill:#b2b2b2;}</style></defs><title>trustworthy</title><path class="cls-1" d="M804.63,420.93V434.5h-4V420.93h-1.71V417.2h1.71v-6.34h4v6.34h3.11v3.73h-3.11Z" transform="translate(-742.58 -381.24)"/><path class="cls-1" d="M810.46,417.2h4v1.55a7.64,7.64,0,0,1,2-1.58,4.48,4.48,0,0,1,2.06-.44,6.46,6.46,0,0,1,3.3,1l-1.83,3.66a3.81,3.81,0,0,0-2.22-.82q-3.27,0-3.27,4.94v9h-4V417.2Z" transform="translate(-742.58 -381.24)"/><path class="cls-1" d="M828.62,417.2v9.93q0,4.3,3.39,4.3t3.39-4.3V417.2h4v10a11.13,11.13,0,0,1-.52,3.59,6,6,0,0,1-1.72,2.43,8.4,8.4,0,0,1-10.29,0,6.12,6.12,0,0,1-1.76-2.43,9.9,9.9,0,0,1-.5-3.59v-10h4Z" transform="translate(-742.58 -381.24)"/><path class="cls-1" d="M854.5,420.15l-3.3,1.76a2.29,2.29,0,0,0-1.94-1.6,1.33,1.33,0,0,0-.94.36,1.22,1.22,0,0,0-.39.93q0,1,2.31,2a13.78,13.78,0,0,1,4.28,2.52,4.32,4.32,0,0,1,1.1,3.11,5.45,5.45,0,0,1-1.85,4.19,6.63,6.63,0,0,1-10.5-2.65l3.41-1.58a7.39,7.39,0,0,0,1.08,1.58,2.47,2.47,0,0,0,1.74.67q2,0,2-1.85a2.54,2.54,0,0,0-1.56-2l-1.21-.59-1.23-.59a7.51,7.51,0,0,1-2.45-1.71,4.2,4.2,0,0,1-.91-2.79,4.94,4.94,0,0,1,1.55-3.73,5.42,5.42,0,0,1,3.84-1.47Q852.88,416.72,854.5,420.15Z" transform="translate(-742.58 -381.24)"/><path class="cls-1" d="M863.33,420.93V434.5h-4V420.93h-1.71V417.2h1.71v-6.34h4v6.34h3.11v3.73h-3.11Z" transform="translate(-742.58 -381.24)"/><path class="cls-1" d="M871.32,417.2l4.53,9.88,4.88-11.46,4.92,11.46,4.48-9.88h4.48l-9.06,18.6-4.81-11.14-4.87,11.14-9-18.6h4.49Z" transform="translate(-742.58 -381.24)"/><path class="cls-1" d="M895.84,425.73a8.6,8.6,0,0,1,2.68-6.38,9.46,9.46,0,0,1,13.11,0,9.26,9.26,0,0,1,0,13A9.17,9.17,0,0,1,905,435a8.79,8.79,0,0,1-6.52-2.66A9,9,0,0,1,895.84,425.73Zm4.09,0.07a5.84,5.84,0,0,0,1.39,4.1,5.38,5.38,0,0,0,7.5,0,6.5,6.5,0,0,0,0-8.07,5.32,5.32,0,0,0-7.46,0A5.56,5.56,0,0,0,899.92,425.8Z" transform="translate(-742.58 -381.24)"/><path class="cls-1" d="M918.52,417.2h4v1.55a7.64,7.64,0,0,1,2-1.58,4.48,4.48,0,0,1,2.06-.44,6.46,6.46,0,0,1,3.3,1L928,421.41a3.81,3.81,0,0,0-2.22-.82q-3.27,0-3.27,4.94v9h-4V417.2Z" transform="translate(-742.58 -381.24)"/><path class="cls-1" d="M937.56,420.93V434.5h-4V420.93h-1.71V417.2h1.71v-6.34h4v6.34h3.11v3.73h-3.11Z" transform="translate(-742.58 -381.24)"/><path class="cls-1" d="M944.12,404.5h4v14.14a6.88,6.88,0,0,1,4.71-1.92,6.08,6.08,0,0,1,4.69,1.9q1.49,1.65,1.49,5.28V434.5h-4V424.27a4.88,4.88,0,0,0-.74-3,2.84,2.84,0,0,0-2.37-.93,3.26,3.26,0,0,0-2.95,1.3,8.89,8.89,0,0,0-.83,4.51v8.37h-4v-30Z" transform="translate(-742.58 -381.24)"/><path class="cls-1" d="M968.94,431.29l-7.78-14.09h4.64l5.29,9.95L976,417.2h4.51l-13.79,26.72h-4.57Z" transform="translate(-742.58 -381.24)"/><path class="cls-2" d="M764.23,462.93a22.2,22.2,0,0,1,2.5-44.26,3.87,3.87,0,1,1,0,7.73,14.47,14.47,0,1,0,14.46,14.68,4,4,0,0,1,3-4,3.87,3.87,0,0,1,4.74,3.77A22.23,22.23,0,0,1,764.23,462.93Z" transform="translate(-742.58 -381.24)"/><path class="cls-2" d="M785.1,445.06a3.87,3.87,0,0,1-3.87-3.87l0.41-58.81a1.15,1.15,0,0,1,1.57-1.06l31.45,12.62a0.61,0.61,0,0,1-.23,1.19c-6.13-.09-18.76-0.31-23.3-0.39a1.66,1.66,0,0,0-1.68,1.64L789,441.19A3.87,3.87,0,0,1,785.1,445.06Z" transform="translate(-742.58 -381.24)"/><circle class="cls-3" cx="24.19" cy="59.63" r="6.42"/><path class="cls-3" d="M746.39,463.67a3.86,3.86,0,0,1,2.75,1.09,24.91,24.91,0,0,0,35.19-.52,3.87,3.87,0,0,1,5.55,5.39,32.66,32.66,0,0,1-46.12.68A3.87,3.87,0,0,1,746.39,463.67Z" transform="translate(-742.58 -381.24)"/><path class="cls-4" d="M803.75,440.25l-0.15,1.32a5.32,5.32,0,0,1,3.88-1.68,3.6,3.6,0,0,1,2.05.49,3.89,3.89,0,0,1,1.29,1.75,6.16,6.16,0,0,1,4.52-2.23q4.19,0,4.19,3.85,0,0.39-.07,1.09t-0.19,1.74l-1,7.77H815l1-8.16a15.84,15.84,0,0,0,.13-1.68,1.63,1.63,0,0,0-1.86-1.84,3.4,3.4,0,0,0-1.27.22,2.3,2.3,0,0,0-.92.67,3.67,3.67,0,0,0-.63,1.18,9.21,9.21,0,0,0-.38,1.73l-1,7.87h-3.31l1-8.36q0.13-1.14.13-1.56a1.62,1.62,0,0,0-1.9-1.75q-2.75,0-3.22,3.82l-1,7.86H798.6l1.74-14.1h3.41Z" transform="translate(-742.58 -381.24)"/><path class="cls-4" d="M836.8,440.25l-1,8.2a16.55,16.55,0,0,1-.3,1.83,9,9,0,0,1-.39,1.3,4.46,4.46,0,0,1-1.41,1.78,6.94,6.94,0,0,1-4.41,1.32,6.18,6.18,0,0,1-4.16-1.33,4.53,4.53,0,0,1-1.56-3.61q0-.34,0-0.81t0.11-1.06l0.93-7.62H828l-1,7.92q-0.06.51-.09,0.89t0,0.64q0,2.23,2.62,2.23a2.72,2.72,0,0,0,2.1-.73,4.69,4.69,0,0,0,.9-2.57l1-8.36h3.29Z" transform="translate(-742.58 -381.24)"/><path class="cls-4" d="M849.84,441.81L848,443.68a3.82,3.82,0,0,0-2.44-1.18,1.88,1.88,0,0,0-1.26.43,1.33,1.33,0,0,0-.5,1.06,1.4,1.4,0,0,0,.42,1,8.17,8.17,0,0,0,1.75,1.17,8.09,8.09,0,0,1,2.54,1.94,3.53,3.53,0,0,1,.69,2.26,4.06,4.06,0,0,1-1.39,3.22,5.55,5.55,0,0,1-3.7,1.2,6.13,6.13,0,0,1-5.13-2.8l2.17-1.51a3.74,3.74,0,0,0,2.84,1.6,2,2,0,0,0,1.37-.45,1.47,1.47,0,0,0,.52-1.17,1.3,1.3,0,0,0-.43-1,6.11,6.11,0,0,0-.73-0.54q-0.52-.34-1.42-0.82a6.85,6.85,0,0,1-2.2-1.72,3.68,3.68,0,0,1-.61-2.15,4.07,4.07,0,0,1,1.41-3.17,5.17,5.17,0,0,1,3.58-1.26A6.15,6.15,0,0,1,849.84,441.81Z" transform="translate(-742.58 -381.24)"/><path class="cls-4" d="M857.11,440.25l-1.74,14.1h-3.31l1.74-14.1h3.31Z" transform="translate(-742.58 -381.24)"/><path class="cls-4" d="M872.15,441.62L871.73,445a7.79,7.79,0,0,0-1.95-1.87,4.08,4.08,0,0,0-2.15-.55,3.92,3.92,0,0,0-3.1,1.39,5.25,5.25,0,0,0-1.21,3.58,4.63,4.63,0,0,0,1.14,3.28,3.88,3.88,0,0,0,3,1.24,5.83,5.83,0,0,0,3.62-1.51L870.62,454a9.7,9.7,0,0,1-3.65.78,6.69,6.69,0,0,1-5-2,7.27,7.27,0,0,1-1.93-5.24,7.75,7.75,0,0,1,2.08-5.52,6.85,6.85,0,0,1,5.21-2.23A7.75,7.75,0,0,1,872.15,441.62Z" transform="translate(-742.58 -381.24)"/></svg>