<svg xmlns="http://www.w3.org/2000/svg" viewBox="0 0 199.43 97.93"><defs><style>.cls-1{fill:#4e4d4d;}.cls-2{fill:#d8d8d8;}.cls-3{fill:#00bdff;}</style></defs><title>twm-logo_1</title><g id="Layer_2" data-name="Layer 2"><g id="Layer_1-2" data-name="Layer 1"><path class="cls-1" d="M62.13,29.35v5.2h1.82v2.69H62.13V52.92H58.71V37.24H56.85V34.55h1.86v-5.2Z"/><path class="cls-1" d="M71.11,36.81h.07a5.21,5.21,0,0,1,1.55-1.87,3.89,3.89,0,0,1,2.35-.67v3.38l-.58,0a3,3,0,0,0-2.64,1,4.67,4.67,0,0,0-.71,2.75V52.92H67.69V34.55h3.42Z"/><path class="cls-1" d="M82.54,34.55V47.36a4.42,4.42,0,0,0,.18,1.29,2.18,2.18,0,0,0,.62,1,1.88,1.88,0,0,0,1.31.4,1.93,1.93,0,0,0,1.29-.36,1.89,1.89,0,0,0,.58-.94,4.52,4.52,0,0,0,.16-1.23v-13H90.1V47a13,13,0,0,1-.24,2.58,5,5,0,0,1-.84,2,3.81,3.81,0,0,1-1.64,1.25,6.74,6.74,0,0,1-2.6.44,7.33,7.33,0,0,1-3-.51,4,4,0,0,1-1.73-1.42,5.29,5.29,0,0,1-.78-2.2,20.61,20.61,0,0,1-.18-2.86V34.55Z"/><path class="cls-1" d="M101.82,38.3a4.16,4.16,0,0,0-1.22-.71,3.71,3.71,0,0,0-1.33-.27,2.69,2.69,0,0,0-1.64.51,1.7,1.7,0,0,0-.69,1.46,2.36,2.36,0,0,0,.46,1.33,5.8,5.8,0,0,0,1.05,1.07q.64.51,1.38,1a9.26,9.26,0,0,1,1.38,1.2,5.74,5.74,0,0,1,1.05,1.6,5.43,5.43,0,0,1,.42,2.24,5.57,5.57,0,0,1-1.4,3.95,5,5,0,0,1-3.87,1.51,5.41,5.41,0,0,1-1.56-.2,6.13,6.13,0,0,1-1.42-.67V49a7.83,7.83,0,0,0,1.31.84,3.37,3.37,0,0,0,1.53.33A2.2,2.2,0,0,0,99,49.52a2.41,2.41,0,0,0,.58-1.69,2.39,2.39,0,0,0-.42-1.4,5.5,5.5,0,0,0-1.07-1.13q-.65-.53-1.38-1.05A10.59,10.59,0,0,1,95.31,43a5.58,5.58,0,0,1-1.07-1.58,5.19,5.19,0,0,1-.42-2.18,5.49,5.49,0,0,1,.36-2,4.71,4.71,0,0,1,1-1.58,4.62,4.62,0,0,1,1.55-1,5.11,5.11,0,0,1,2-.38,6.84,6.84,0,0,1,1.62.18,5.33,5.33,0,0,1,1.47.62Z"/><path class="cls-1" d="M110.69,29.35v5.2h1.82v2.69h-1.82V52.92h-3.42V37.24h-1.86V34.55h1.86v-5.2Z"/><path class="cls-1" d="M118.15,34.55l2,12.81v.36h.07L121,42l1.42-7.46h2.44l2.07,12.81v.36H127l.95-6.84,1.2-6.33h3.35l-4.33,18.37h-2.33L124,43.5l-.36-4.07h-.07l-.8,6.58-1.35,6.91H119l-4.48-18.37Z"/><path class="cls-1" d="M140.85,53.21a4.8,4.8,0,0,1-3.11-.93A6,6,0,0,1,136,50a10.31,10.31,0,0,1-.76-3.06q-.16-1.65-.16-3.11t.16-3.17a10.56,10.56,0,0,1,.76-3.09,5.94,5.94,0,0,1,1.75-2.35,5.68,5.68,0,0,1,6.22,0,6,6,0,0,1,1.75,2.35,10.53,10.53,0,0,1,.76,3.09q.16,1.67.16,3.17t-.16,3.11a10.28,10.28,0,0,1-.76,3.06A6,6,0,0,1,144,52.29,4.8,4.8,0,0,1,140.85,53.21Zm0-3.17a1.58,1.58,0,0,0,1.46-.8,5.68,5.68,0,0,0,.67-1.84,10.12,10.12,0,0,0,.18-2.08q0-1,0-1.54t0-1.61a10.32,10.32,0,0,0-.18-2.12,5.68,5.68,0,0,0-.67-1.84,1.73,1.73,0,0,0-2.91,0,5.66,5.66,0,0,0-.67,1.84,10.32,10.32,0,0,0-.18,2.12q0,1.07,0,1.61t0,1.54a10.12,10.12,0,0,0,.18,2.08,5.66,5.66,0,0,0,.67,1.84A1.57,1.57,0,0,0,140.85,50Z"/><path class="cls-1" d="M154.31,36.81h.07a5.21,5.21,0,0,1,1.55-1.87,3.89,3.89,0,0,1,2.35-.67v3.38l-.58,0a3,3,0,0,0-2.64,1,4.67,4.67,0,0,0-.71,2.75V52.92h-3.46V34.55h3.42Z"/><path class="cls-1" d="M166.43,29.35v5.2h1.82v2.69h-1.82V52.92H163V37.24h-1.86V34.55H163v-5.2Z"/><path class="cls-1" d="M175.42,22.73V36.66h.07a4.92,4.92,0,0,1,1.46-1.76,3.73,3.73,0,0,1,2.26-.64,3.65,3.65,0,0,1,2.15.54,3.13,3.13,0,0,1,1.11,1.42,6.46,6.46,0,0,1,.42,1.95q.07,1.07.07,2.13V52.92h-3.42V40.23a9.31,9.31,0,0,0-.05-1,2.75,2.75,0,0,0-.27-.95,1.85,1.85,0,0,0-.62-.71,1.91,1.91,0,0,0-1.09-.27,1.72,1.72,0,0,0-1.27.44,2.44,2.44,0,0,0-.62,1.05,4.77,4.77,0,0,0-.18,1.35V52.92H172V22.73Z"/><path class="cls-1" d="M190.11,34.55l2.69,12.81h.07L196,34.55h3.46l-7.5,25.9h-3.6l2.84-9-4.87-16.88Z"/><path class="cls-2" d="M21.66,81.35a22.2,22.2,0,0,1,2.48-44.26A3.91,3.91,0,0,1,28,40.22a3.87,3.87,0,0,1-3.8,4.61A14.47,14.47,0,1,0,38.66,59.52a4,4,0,0,1,3.42-4.07,3.87,3.87,0,0,1,4.32,3.84A22.23,22.23,0,0,1,21.66,81.35Z"/><path class="cls-2" d="M42.53,63.48a3.87,3.87,0,0,1-3.87-3.87l.4-57.55A2.07,2.07,0,0,1,41.83.13c6.44,2.35,21.62,8.24,29.75,11.4a1,1,0,0,1-.39,2L49,13.17a2.06,2.06,0,0,0-2.1,2l-.48,44.39A3.87,3.87,0,0,1,42.53,63.48Z"/><circle class="cls-3" cx="24.19" cy="59.29" r="6.42"/><path class="cls-3" d="M3.81,82.09a3.86,3.86,0,0,1,2.75,1.09,24.91,24.91,0,0,0,35.19-.52,3.87,3.87,0,0,1,5.55,5.39,32.66,32.66,0,0,1-46.12.68,3.87,3.87,0,0,1,2.64-6.64Z"/><path class="cls-2" d="M62.22,58.32l-.14,1.14A5,5,0,0,1,65.62,58a2.84,2.84,0,0,1,3,1.94A5.73,5.73,0,0,1,72.77,58q3.82,0,3.82,3.33,0,.34-.06.95t-.17,1.5l-.87,6.73h-3l.93-7.06A13.06,13.06,0,0,0,73.52,62q0-1.59-1.69-1.59a3.24,3.24,0,0,0-1.16.19,2.1,2.1,0,0,0-.84.58,3.13,3.13,0,0,0-.57,1,7.64,7.64,0,0,0-.35,1.5L68,70.53H65L66,63.29a13.16,13.16,0,0,0,.12-1.35q0-1.52-1.73-1.52-2.51,0-2.93,3.31l-.89,6.8h-3l1.58-12.21Z"/><path class="cls-2" d="M92.34,58.32l-.91,7.1A13.69,13.69,0,0,1,91.15,67a7.48,7.48,0,0,1-.35,1.13,3.9,3.9,0,0,1-1.28,1.54,6.55,6.55,0,0,1-4,1.14,5.83,5.83,0,0,1-3.79-1.15,3.84,3.84,0,0,1-1.42-3.12q0-.3,0-.7t.1-.92l.85-6.6h3l-.89,6.86q-.05.44-.08.77t0,.55q0,1.93,2.39,1.93a2.55,2.55,0,0,0,1.91-.63,3.94,3.94,0,0,0,.82-2.23l.94-7.25Z"/><path class="cls-2" d="M104.21,59.67l-1.7,1.62a3.56,3.56,0,0,0-2.22-1,1.77,1.77,0,0,0-1.15.37,1.13,1.13,0,0,0-.46.91,1.18,1.18,0,0,0,.38.89,7.48,7.48,0,0,0,1.59,1A7.33,7.33,0,0,1,103,65.14a3,3,0,0,1,.63,2,3.44,3.44,0,0,1-1.27,2.79,5.22,5.22,0,0,1-3.37,1,5.66,5.66,0,0,1-4.68-2.42l2-1.31a3.46,3.46,0,0,0,2.59,1.39,1.9,1.9,0,0,0,1.25-.39,1.25,1.25,0,0,0,.47-1,1.1,1.1,0,0,0-.4-.88,5.56,5.56,0,0,0-.67-.47q-.48-.3-1.29-.71a6.2,6.2,0,0,1-2-1.49,3.07,3.07,0,0,1-.56-1.87A3.45,3.45,0,0,1,96.93,59a4.86,4.86,0,0,1,3.26-1.09A5.73,5.73,0,0,1,104.21,59.67Z"/><path class="cls-2" d="M110.83,58.32l-1.58,12.21h-3l1.58-12.21Z"/><path class="cls-2" d="M124.53,59.5l-.38,2.92a7,7,0,0,0-1.77-1.62,3.87,3.87,0,0,0-2-.48,3.66,3.66,0,0,0-2.82,1.21,4.41,4.41,0,0,0-1.1,3.1,3.89,3.89,0,0,0,1,2.84,3.62,3.62,0,0,0,2.71,1.08,5.47,5.47,0,0,0,3.3-1.31l-.4,3a9.23,9.23,0,0,1-3.33.67,6.26,6.26,0,0,1-4.59-1.75,6.12,6.12,0,0,1-1.76-4.54,6.53,6.53,0,0,1,1.89-4.78,6.4,6.4,0,0,1,4.74-1.93A7.29,7.29,0,0,1,124.53,59.5Z"/></g></g></svg>